<svg 
 xmlns="http://www.w3.org/2000/svg"
 xmlns:xlink="http://www.w3.org/1999/xlink"
 width="25px" height="24px">
<path fill-rule="evenodd"  fill="rgb(245, 215, 110)"
 d="M22.256,20.272 C22.256,20.803 21.831,21.225 21.296,21.225 L4.480,21.225 C3.946,21.225 3.521,20.803 3.521,20.272 L3.521,10.148 L5.739,10.148 C5.534,10.789 5.424,11.492 5.424,12.195 C5.424,16.194 8.791,19.428 12.928,19.428 C17.081,19.428 20.447,16.194 20.447,12.195 C20.447,11.492 20.337,10.789 20.132,10.148 L22.256,10.148 L22.256,10.148 L22.256,20.272 ZM17.788,11.945 C17.788,14.523 15.618,16.616 12.928,16.616 C10.254,16.616 8.083,14.523 8.083,11.945 C8.083,9.367 10.254,7.274 12.928,7.274 C15.618,7.274 17.788,9.367 17.788,11.945 ZM22.256,6.320 C22.256,6.914 21.768,7.398 21.171,7.398 L18.433,7.398 C17.836,7.398 17.348,6.914 17.348,6.320 L17.348,3.742 C17.348,3.149 17.836,2.664 18.433,2.664 L18.433,2.664 L21.171,2.664 C21.768,2.664 22.256,3.149 22.256,3.742 L22.256,6.320 ZM24.993,3.071 C24.993,1.383 23.593,-0.007 21.894,-0.007 L3.930,-0.007 L3.930,-0.007 C2.231,-0.007 0.831,1.383 0.831,3.071 L0.831,20.912 C0.831,22.600 2.231,23.990 3.930,23.990 L21.894,23.990 C23.593,23.990 24.993,22.600 24.993,20.912 L24.993,3.071 Z"/>
</svg>