<svg 
 xmlns="http://www.w3.org/2000/svg"
 xmlns:xlink="http://www.w3.org/1999/xlink"
 width="26px" height="20px">
<path fill-rule="evenodd"  fill="rgb(255, 255, 255)"
 d="M25.723,2.367 C24.811,2.758 23.820,3.039 22.798,3.148 C23.852,2.523 24.654,1.539 25.031,0.368 C24.056,0.946 22.955,1.368 21.807,1.586 C20.879,0.602 19.557,-0.007 18.094,-0.007 C15.278,-0.007 13.013,2.258 13.013,5.039 C13.013,5.430 13.060,5.820 13.139,6.195 C8.923,5.977 5.164,3.977 2.663,0.914 C2.222,1.665 1.970,2.523 1.970,3.461 C1.970,5.211 2.867,6.758 4.236,7.664 C3.402,7.632 2.615,7.398 1.939,7.023 C1.939,7.039 1.939,7.070 1.939,7.086 C1.939,9.539 3.685,11.570 6.013,12.038 C5.588,12.147 5.132,12.210 4.676,12.210 C4.346,12.210 4.031,12.179 3.716,12.132 C4.361,14.132 6.233,15.585 8.467,15.632 C6.721,16.991 4.534,17.788 2.159,17.788 C1.734,17.788 1.341,17.772 0.932,17.725 C3.182,19.163 5.856,19.990 8.735,19.990 C18.078,19.990 23.191,12.304 23.191,5.633 C23.191,5.414 23.191,5.195 23.175,4.976 C24.166,4.258 25.031,3.367 25.723,2.367 Z"/>
</svg>