<svg xmlns="http://www.w3.org/2000/svg" width="39" height="39">
    <defs>
        <filter id="a">
            <feFlood flood-color="#ECECEC" flood-opacity="1" result="floodOut"/>
            <feComposite in="floodOut" in2="SourceGraphic" operator="atop" result="compOut"/>
            <feBlend in="compOut" in2="SourceGraphic"/>
        </filter>
    </defs>
    <path fill="#ECECEC" fill-rule="evenodd" d="M23.156 34.125c-5.653 0-10.602-2.971-13.406-7.427v.115H7.312A7.313 7.313 0 0 1 0 19.5v-4.875a2.437 2.437 0 0 1 2.438-2.438h35.343c.674 0 1.219.546 1.219 1.219v4.875c0 8.751-7.094 15.844-15.844 15.844zM7.312 18.281v-3.656H3.656c-.673 0-1.218.545-1.218 1.219V19.5a4.875 4.875 0 0 0 4.874 4.875h1.219a15.78 15.78 0 0 1-1.219-6.094zm29.251-3.656H9.75v3.656c0 7.405 6.002 13.407 13.406 13.407 7.404 0 13.407-6.002 13.407-13.407v-3.656zM30.469 9.75a1.218 1.218 0 0 1-1.219-1.219V6.094a1.218 1.218 0 1 1 2.437 0v2.437c0 .674-.545 1.219-1.218 1.219zm-7.313 0a1.219 1.219 0 0 1-1.219-1.219V1.219a1.219 1.219 0 1 1 2.438 0v7.312c0 .674-.545 1.219-1.219 1.219zm-7.312 0a1.218 1.218 0 0 1-1.219-1.219V3.656a1.218 1.218 0 1 1 2.437 0v4.875c0 .674-.545 1.219-1.218 1.219zM8.531 36.563h29.25a1.218 1.218 0 1 1 0 2.437H8.531a1.219 1.219 0 1 1 0-2.437z" filter="url(#a)"/>
</svg>
